PathFileType	4	(X/Y/Z)	/Users/itak/Documents/Research/Walk-IL/dataset/trc/00572_00009.trc
DataRate	CameraRate	NumFrames	NumMarkers	Units	OrigDataRate	OrigDataStartFrame	OrigNumFrames
100.000000	100.000000	4	53	mm	100.000000	64	513
Frame#	Time	RPSI			LPSI			L3			STRN			T10			C7			CLAV			RBAK			LBAK			LSHO			LUPA			LAEL			LAOL			LWTS			LWPS			LFRA			LIFD			LHPS			LHTS			RSHO			RUPA			RAEL			RAOL			RWTS			RWPS			RFRA			RHTS			RHPS			RBHD			LFHD			RFHD			LBHD			LHIP			RHIP			RASI			LASI			LKNE			LTHI			LANK			LTIP			LTOE			LMT1			LMT5			LHEE			RKNE			RTHI			RANK			RTIP			RTOE			RMT1			RMT5			RHEE			RIFD			
		X1	Y1	Z1	X2	Y2	Z2	X3	Y3	Z3	X4	Y4	Z4	X5	Y5	Z5	X6	Y6	Z6	X7	Y7	Z7	X8	Y8	Z8	X9	Y9	Z9	X10	Y10	Z10	X11	Y11	Z11	X12	Y12	Z12	X13	Y13	Z13	X14	Y14	Z14	X15	Y15	Z15	X16	Y16	Z16	X17	Y17	Z17	X18	Y18	Z18	X19	Y19	Z19	X20	Y20	Z20	X21	Y21	Z21	X22	Y22	Z22	X23	Y23	Z23	X24	Y24	Z24	X25	Y25	Z25	X26	Y26	Z26	X27	Y27	Z27	X28	Y28	Z28	X29	Y29	Z29	X30	Y30	Z30	X31	Y31	Z31	X32	Y32	Z32	X33	Y33	Z33	X34	Y34	Z34	X35	Y35	Z35	X36	Y36	Z36	X37	Y37	Z37	X38	Y38	Z38	X39	Y39	Z39	X40	Y40	Z40	X41	Y41	Z41	X42	Y42	Z42	X43	Y43	Z43	X44	Y44	Z44	X45	Y45	Z45	X46	Y46	Z46	X47	Y47	Z47	X48	Y48	Z48	X49	Y49	Z49	X50	Y50	Z50	X51	Y51	Z51	X52	Y52	Z52	X53	Y53	Z53	

65	0.64	-1200.948364257812	1020.694763183594	-118.2855911254883	-1194.560180664062	1024.259765625	-252.0385894775391	-1188.958862304688	1106.02587890625	-189.4060363769531	-958.3121948242188	1293.68798828125	-194.2368774414062	-1199.836669921875	1232.337524414062	-190.1834259033203	-1153.537719726562	1506.556884765625	-178.7649993896484	-978.1659545898438	1405.397583007812	-194.0601959228516	-1222.197631835938	1380.126098632812	-92.12659454345703	-1189.720703125	1453.816284179688	-269.5235900878906	-1095.098876953125	1478.735961914062	-355.7154235839844	-1107.937622070312	1350.883056640625	-433.3661193847656	-1082.5966796875	1130.020263671875	-454.0809326171875	-1169.198120117188	1120.701782226562	-403.5740966796875	-988.0995483398438	889.4396362304688	-400.1835327148438	-1030.761840820312	864.9559326171875	-472.1431579589844	-1057.787231445312	1043.815185546875	-459.1676330566406	-1014.913635253906	708.5328369140625	-391.4662780761719	-1022.075988769531	805.1068115234375	-462.7990112304688	-970.7616577148438	811.8236083984375	-418.81640625	-1091.8623046875	1468.221923828125	-24.64949607849121	-1108.193603515625	1402.615966796875	43.71197509765625	-1108.273559570312	1111.441040039062	83.10402679443359	-1161.716552734375	1094.4228515625	53.87398529052734	-973.35302734375	891.1948852539062	40.74273681640625	-1019.575500488281	869.8822631835938	106.4307327270508	-1097.621704101562	1055.535400390625	88.38539123535156	-944.9210815429688	798.486083984375	55.34587478637695	-1002.974548339844	795.3477783203125	103.1035690307617	-1086.901611328125	1684.651611328125	-121.1015167236328	-917.2578125	1712.685791015625	-238.1323852539062	-950.6134033203125	1709.881958007812	-97.9866943359375	-1041.383422851562	1686.623413085938	-280.5470581054688	-1068.502075195312	936.5127563476562	-378.02880859375	-1087.180786132812	940.4637451171875	7.786331176757812	-994.618408203125	967.8360595703125	-48.07094955444336	-989.064697265625	957.5922241210938	-324.31103515625	-1074.61474609375	490.4400634765625	-314.1756896972656	-1061.782592773438	654.9998779296875	-353.8456726074219	-1163.923095703125	28.16170883178711	-302.4539489746094	-1142.901245117188	249.5601501464844	-317.2654113769531	-952.9432373046875	37.96441650390625	-240.9623870849609	-1025.706420898438	42.26766967773438	-207.8346252441406	-1039.794311523438	32.03754806518555	-314.9256591796875	-1233.163452148438	30.2083683013916	-246.8240051269531	-1090.9921875	496.7341003417969	-32.98748016357422	-1058.604248046875	784.6266479492188	7.3640456199646	-1185.162353515625	38.38089370727539	-41.1854133605957	-1099.392822265625	356.2032470703125	-41.76027679443359	-963.6036987304688	37.80109024047852	-75.97118377685547	-1027.720703125	32.72837448120117	-119.3027038574219	-1053.006958007812	39.9686393737793	-20.28539085388184	-1239.184204101562	26.15573501586914	-93.57482147216797	-971.0606079101562	719.4605712890625	35.48477554321289	
66	0.65	-1200.715698242188	1020.750244140625	-118.662956237793	-1194.337768554688	1024.3134765625	-252.4683837890625	-1188.664184570312	1106.194946289062	-189.8344879150391	-957.8053588867188	1293.536865234375	-194.7784576416016	-1199.428100585938	1232.498291015625	-190.5938873291016	-1152.698974609375	1506.654052734375	-179.1939544677734	-977.461669921875	1405.264526367188	-194.5515441894531	-1221.49267578125	1380.319946289062	-92.498046875	-1189.010986328125	1453.9580078125	-269.9353332519531	-1094.425537109375	1478.752197265625	-356.2007446289062	-1107.510498046875	1350.9677734375	-433.8768615722656	-1082.576171875	1130.007446289062	-454.6881103515625	-1169.156127929688	1120.900024414062	-404.0661010742188	-988.6744384765625	889.232421875	-401.1337280273438	-1031.472900390625	864.8395385742188	-473.0403747558594	-1058.056640625	1043.772094726562	-459.8803100585938	-1015.714904785156	708.160888671875	-392.5456848144531	-1023.028381347656	805.0115356445312	-463.81689453125	-971.707275390625	811.3704833984375	-419.8103332519531	-1090.9716796875	1468.251098632812	-25.13156890869141	-1107.348510742188	1402.671264648438	43.24344253540039	-1107.808471679688	1111.5341796875	82.79381561279297	-1161.25244140625	1094.53515625	53.58428573608398	-973.2568969726562	891.0990600585938	40.36682891845703	-1019.380737304688	869.8762817382812	106.1295471191406	-1097.217529296875	1055.617431640625	88.10365295410156	-945.0068359375	798.3524780273438	55.12326049804688	-1002.8740234375	795.3040161132812	102.8939819335938	-1085.662719726562	1684.638305664062	-121.5658416748047	-916.0211181640625	1712.32666015625	-238.6912536621094	-949.300537109375	1709.592163085938	-98.50263977050781	-1040.294921875	1686.538696289062	-281.0397644042969	-1068.316284179688	936.52978515625	-378.4918823242188	-1087.000244140625	940.4619750976562	7.442791938781738	-994.5694580078125	967.790771484375	-48.40710067749023	-988.8081665039062	957.4298095703125	-324.75927734375	-1074.47216796875	490.4065246582031	-314.351318359375	-1061.611694335938	654.9257202148438	-354.2340698242188	-1163.92919921875	28.15688514709473	-302.4564819335938	-1142.853515625	249.5317687988281	-317.3123168945312	-952.9432373046875	38.01480865478516	-240.9333953857422	-1025.732666015625	42.25764846801758	-207.8335876464844	-1039.796020507812	32.03779983520508	-314.9203491210938	-1233.1884765625	30.20593452453613	-246.8391265869141	-1090.913330078125	496.7393798828125	-33.14515686035156	-1058.52392578125	784.6420288085938	7.115815162658691	-1185.18798828125	38.36893463134766	-41.15948867797852	-1099.295043945312	356.1804809570312	-41.92776870727539	-963.6166381835938	37.81148147583008	-75.97988891601562	-1027.739135742188	32.71966934204102	-119.2958526611328	-1053.0126953125	39.97543716430664	-20.29239845275879	-1239.1904296875	26.12009048461914	-93.54909515380859	-971.1138305664062	719.2835693359375	35.47213745117188	
67	0.66	-1200.459350585938	1020.80615234375	-119.0721282958984	-1194.098754882812	1024.373779296875	-252.9121551513672	-1188.351318359375	1106.373291015625	-190.2859802246094	-957.27783203125	1293.371826171875	-195.3497161865234	-1199.003051757812	1232.661010742188	-191.0187530517578	-1151.829833984375	1506.74755859375	-179.6485748291016	-976.7286376953125	1405.124267578125	-195.0708465576172	-1220.763916015625	1380.51708984375	-92.89505004882812	-1188.278686523438	1454.09765625	-270.3731384277344	-1093.728271484375	1478.765502929688	-356.7124633789062	-1107.042724609375	1351.046630859375	-434.4030151367188	-1082.51123046875	1129.987060546875	-455.3086547851562	-1169.094360351562	1121.094604492188	-404.5780334472656	-989.199462890625	889.0255737304688	-402.0939331054688	-1032.157836914062	864.7274780273438	-473.9410095214844	-1058.297241210938	1043.72021484375	-460.6046752929688	-1016.475280761719	707.7893676757812	-393.6342163085938	-1023.960083007812	804.9344482421875	-464.8464965820312	-972.6621704101562	810.8859252929688	-420.7854919433594	-1090.048583984375	1468.283447265625	-25.62790870666504	-1106.47119140625	1402.741333007812	42.75655364990234	-1107.316528320312	1111.62744140625	82.45069122314453	-1160.781494140625	1094.666381835938	53.27370834350586	-973.12060546875	890.9889526367188	39.94575119018555	-1019.181640625	869.8783569335938	105.8106994628906	-1096.786987304688	1055.709350585938	87.79573059082031	-945.0935668945312	798.2196655273438	54.8870964050293	-1002.762390136719	795.2630004882812	102.6522827148438	-1084.378051757812	1684.638793945312	-122.0542755126953	-914.7380981445312	1711.95458984375	-239.2751617431641	-947.9408569335938	1709.29541015625	-99.04663848876953	-1039.14990234375	1686.444946289062	-281.5474243164062	-1068.135498046875	936.5289916992188	-378.9880981445312	-1086.8134765625	940.4668579101562	7.0995192527771	-994.5389404296875	967.7355346679688	-48.76334381103516	-988.540283203125	957.2775268554688	-325.2182922363281	-1074.329467773438	490.3656616210938	-314.5158081054688	-1061.410888671875	654.8563232421875	-354.6020202636719	-1163.935424804688	28.15053367614746	-302.4598693847656	-1142.800659179688	249.4945831298828	-317.3676452636719	-952.948486328125	38.05704498291016	-240.9130554199219	-1025.754272460938	42.2545166015625	-207.8305511474609	-1039.797119140625	32.03863143920898	-314.9134216308594	-1233.220458984375	30.20554733276367	-246.8557891845703	-1090.819213867188	496.7442321777344	-33.30491256713867	-1058.4189453125	784.6568603515625	6.834896087646484	-1185.220336914062	38.35984802246094	-41.13045883178711	-1099.167724609375	356.1482543945312	-42.10553359985352	-963.6322631835938	37.82294082641602	-75.99010467529297	-1027.76220703125	32.704345703125	-119.2848434448242	-1053.019287109375	39.98386383056641	-20.3025016784668	-1239.198486328125	26.0781078338623	-93.51704406738281	-971.2046508789062	719.1303100585938	35.46255111694336	
68	0.67	-1200.182006835938	1020.861389160156	-119.5149917602539	-1193.842651367188	1024.437377929688	-253.3750610351562	-1188.021240234375	1106.556884765625	-190.7562866210938	-956.7217407226562	1293.200561523438	-195.9482421875	-1198.559448242188	1232.8271484375	-191.4562530517578	-1150.931518554688	1506.837158203125	-180.1316528320312	-975.9683837890625	1404.97802734375	-195.6246185302734	-1220.011840820312	1380.721923828125	-93.3165283203125	-1187.521118164062	1454.234375	-270.839599609375	-1092.998901367188	1478.77392578125	-357.2489624023438	-1106.529052734375	1351.115356445312	-434.9446716308594	-1082.406494140625	1129.962890625	-455.9448547363281	-1169.008544921875	1121.284301757812	-405.1146240234375	-989.6742553710938	888.8090209960938	-403.0627136230469	-1032.81298828125	864.6214599609375	-474.8458862304688	-1058.4990234375	1043.662963867188	-461.3403930664062	-1017.185729980469	707.4386596679688	-394.7188415527344	-1024.857543945312	804.8679809570312	-465.8756408691406	-973.5986938476562	810.4022216796875	-421.7389831542969	-1089.095458984375	1468.318237304688	-26.13846397399902	-1105.560913085938	1402.824340820312	42.25296020507812	-1106.794677734375	1111.721435546875	82.0699462890625	-1160.305297851562	1094.820678710938	52.94291305541992	-972.9432983398438	890.8619384765625	39.48814010620117	-1018.976257324219	869.8867797851562	105.4757461547852	-1096.329467773438	1055.810180664062	87.46047210693359	-945.1554565429688	798.0921630859375	54.62380218505859	-1002.63720703125	795.2230834960938	102.3720092773438	-1083.045776367188	1684.656127929688	-122.564453125	-913.4104614257812	1711.566650390625	-239.8841247558594	-946.53271484375	1708.986938476562	-99.61922454833984	-1037.945922851562	1686.3447265625	-282.0707702636719	-1067.95361328125	936.4951782226562	-379.5006713867188	-1086.61865234375	940.4765625	6.754244804382324	-994.5154418945312	967.676025390625	-49.15415191650391	-988.2648315429688	957.14990234375	-325.6790161132812	-1074.17236328125	490.3165893554688	-314.6795654296875	-1061.193481445312	654.78662109375	-354.9545593261719	-1163.942260742188	28.14205741882324	-302.4646911621094	-1142.739135742188	249.4437561035156	-317.4342956542969	-952.9598999023438	38.08844375610352	-240.9020080566406	-1025.772705078125	42.25602340698242	-207.8263854980469	-1039.797485351562	32.04024887084961	-314.9048461914062	-1233.255493164062	30.20494842529297	-246.8699798583984	-1090.701171875	496.7479553222656	-33.47097015380859	-1058.284912109375	784.6713256835938	6.515669345855713	-1185.258178710938	38.35305786132812	-41.09818649291992	-1099.005981445312	356.1067199707031	-42.29280090332031	-963.6505126953125	37.83469390869141	-76.00150299072266	-1027.789306640625	32.68134307861328	-119.2704544067383	-1053.026489257812	39.9937629699707	-20.31491279602051	-1239.21044921875	26.03174781799316	-93.48139953613281	-971.3154296875	719.0001831054688	35.43663024902344	
